<svg id="Layer_1" data-name="Layer 1" xmlns="http://www.w3.org/2000/svg" width="139" height="31" viewBox="0 0 139 31"><defs><style>.cls-1{fill:#fff;}</style></defs><title>movin</title><path class="cls-1" d="M26.4,29.52S24.41,31,20.33,31c-4.38,0-5.64-1.64-5.64-6.74V18.63c0-.83-.36-1.37-1.21-1.37S12,17.92,12,19.1v4.7h1.14v6.58H.39V23.8H2.27V17.34H0V10.8H11.28S9,13.1,9,18.11l.82.12-.2-.12c0-2.55,3.06-7.95,8.15-7.95A6.19,6.19,0,0,1,23.66,14a7.6,7.6,0,0,1,6.7-3.84c4.58,0,6.78,3.84,6.78,8.47V23.8H39v5.72S37,31,32.91,31c-4.39,0-5.64-1.64-5.64-6.74V18.63c0-.83-.36-1.37-1.21-1.37a1.54,1.54,0,0,0-1.49,1.69V23.8H26.4Z"/><path class="cls-1" d="M39.57,20.34c0-7.16,5.76-10.49,11.24-10.49S62.05,13,62.05,20.34C62.05,27.87,56.41,31,50.81,31S39.57,27.72,39.57,20.34m9.12.08c0,2.43,1,3.61,2.12,3.61S53,22.89,53,20.42s-1.18-3.56-2.23-3.56-2.12,1.06-2.12,3.56"/><path class="cls-1" d="M88,17.34H86.26L81.13,31H69.26L64,17.34h-1.6V10.8H74.79v6.54H73.18s2.08,3.56,2.08,6.46h.54a18.16,18.16,0,0,1,1.72-6.46H76.07V10.8H88Z"/><path class="cls-1" d="M102.41,29.52S100.76,31,96.69,31C92.29,31,91,29.12,91,24V17.34H89.21v-6.5h11.36v13h1.84Z"/><path class="cls-1" d="M130,29.52S128,31,123.91,31c-4.39,0-5.65-1.64-5.65-6.74V18.63c0-.83-.34-1.37-1.21-1.37s-1.48.67-1.48,1.84v4.7h1.13v6.58H104V23.8h1.89V17.34h-2.28V10.8h11.29s-2.28,2.46-2.28,7.31h.63c0-2.55,3.05-7.95,8.15-7.95,4.59,0,6.78,3.84,6.78,8.47V23.8H130Z"/><path class="cls-1" d="M99.43,4.87A4.55,4.55,0,1,1,94.88.32a4.55,4.55,0,0,1,4.55,4.55"/><path class="cls-1" d="M134.53.32a4.55,4.55,0,0,0-1.07,9,15.84,15.84,0,0,1-2.57.13v3.65c5.27,0,8.19-3.67,8.19-8.19A4.55,4.55,0,0,0,134.53.32"/></svg>