<svg id="Layer_1" data-name="Layer 1" xmlns="http://www.w3.org/2000/svg" xmlns:xlink="http://www.w3.org/1999/xlink" width="32" height="32" viewBox="0 0 32 32"><defs><style>.cls-1{fill:none;}.cls-2{clip-path:url(#clip-path);}.cls-3{fill:#f48120;}</style><clipPath id="clip-path"><rect class="cls-1" x="6.67" width="18.66" height="32"/></clipPath></defs><title>next</title><g class="cls-2"><path class="cls-3" d="M25.33,16a1.11,1.11,0,0,1-.32.74L10.07,31.68a1,1,0,0,1-1.48,0L7,30.08A1,1,0,0,1,7,28.6L19.59,16,7,3.4a1.11,1.11,0,0,1-.32-.74A1,1,0,0,1,7,1.92L8.59.32a1,1,0,0,1,1.48,0L25,15.26a1.11,1.11,0,0,1,.32.74"/></g></svg>