<svg id="Layer_1" data-name="Layer 1" xmlns="http://www.w3.org/2000/svg" xmlns:xlink="http://www.w3.org/1999/xlink" width="32" height="32" viewBox="0 0 32 32"><defs><style>.cls-1{fill:none;}.cls-2{clip-path:url(#clip-path);}.cls-3{fill:#f48120;}</style><clipPath id="clip-path"><rect class="cls-1" x="6.67" width="18.66" height="32"/></clipPath></defs><title>prev</title><g class="cls-2"><path class="cls-3" d="M6.67,16A1.11,1.11,0,0,1,7,15.26L21.93.32a1,1,0,0,1,1.48,0L25,1.92a1.11,1.11,0,0,1,.32.74A1.11,1.11,0,0,1,25,3.4L12.41,16,25,28.6a1.11,1.11,0,0,1,.32.74,1,1,0,0,1-.32.74l-1.6,1.6a1,1,0,0,1-1.48,0L7,16.74A1.11,1.11,0,0,1,6.67,16"/></g></svg>