<svg id="Layer_1" data-name="Layer 1" xmlns="http://www.w3.org/2000/svg" width="104" height="31" viewBox="0 0 104 31"><defs><style>.cls-1{fill:#fff;}</style></defs><title>wedo</title><path class="cls-1" d="M97.59,22.06a6.82,6.82,0,0,1-.88,2.25A4.61,4.61,0,0,1,95,25.9a5.25,5.25,0,0,1-2.6.6,5.15,5.15,0,0,1-2.59-.6,4.6,4.6,0,0,1-1.66-1.59,6.79,6.79,0,0,1-.89-2.25A12.73,12.73,0,0,1,87,19.5a13,13,0,0,1,.26-2.58,6.4,6.4,0,0,1,.89-2.24,4.87,4.87,0,0,1,1.66-1.59,5,5,0,0,1,2.59-.61,5.08,5.08,0,0,1,2.6.61,4.88,4.88,0,0,1,1.69,1.59,6.43,6.43,0,0,1,.88,2.24,13,13,0,0,1,.26,2.58,12.73,12.73,0,0,1-.26,2.57M75.76,20A7.6,7.6,0,0,1,74,22.84a6.13,6.13,0,0,1-2.46,1.56,8.71,8.71,0,0,1-2.85.47H62.67V5.75h4.84a11,11,0,0,1,4.21.7,6.58,6.58,0,0,1,2.74,2A8.29,8.29,0,0,1,76,11.62a17.58,17.58,0,0,1,.45,4.15A12.23,12.23,0,0,1,75.76,20M51,23.67a3.78,3.78,0,0,1-1.64,1.92,5.59,5.59,0,0,1-3.19.91,5.56,5.56,0,0,1-4-1.32,6,6,0,0,1-1.51-4.23H55.91v2.72Zm-10-8a4.32,4.32,0,0,1,.82-1.52A4.54,4.54,0,0,1,43.37,13a5.43,5.43,0,0,1,2.44-.49,4.34,4.34,0,0,1,3.34,1.19,6.91,6.91,0,0,1,1.53,3.47h-10A7.07,7.07,0,0,1,41,15.68m62.17-.94a10.24,10.24,0,0,0-2.33-3.65,10.45,10.45,0,0,0-3.65-2.34,13.21,13.21,0,0,0-4.76-.82,13,13,0,0,0-4.75.82A10.39,10.39,0,0,0,84,11.09a9.6,9.6,0,0,0-1,1.22,16.22,16.22,0,0,0-.89-3.75,12.85,12.85,0,0,0-2.93-4.67,12.15,12.15,0,0,0-4.44-2.8A16.17,16.17,0,0,0,69.19.15H55.91V14.6a11.53,11.53,0,0,0-1.49-2.68A10,10,0,0,0,50.94,9a10.78,10.78,0,0,0-5-1.08,11.77,11.77,0,0,0-4.65.89,11.44,11.44,0,0,0-2.92,1.79L41.88.15H34.8L28.71,19.77,24.49.15H17.33L13.45,19.77,7.34.15H0L10.07,30.45h6.34L20.88,9.19l4.47,21.26h6.53l2.87-8.69a12.27,12.27,0,0,0,.63,2.43,10.66,10.66,0,0,0,2.27,3.64,9.91,9.91,0,0,0,3.59,2.35A12.88,12.88,0,0,0,46,31a11.88,11.88,0,0,0,6.47-1.69A9.31,9.31,0,0,0,55.91,25v5.43H69.19a15,15,0,0,0,6.15-1.17,12.34,12.34,0,0,0,4.36-3.2,12.64,12.64,0,0,0,1.73-2.63c.08.28.18.55.28.82a10,10,0,0,0,6,5.94,13.27,13.27,0,0,0,4.75.8,13.46,13.46,0,0,0,4.76-.8,10,10,0,0,0,6-5.94,13.12,13.12,0,0,0,.82-4.75,13.25,13.25,0,0,0-.82-4.77"/></svg>